<?xml version="1.0" standalone="no"?>
<!DOCTYPE svg PUBLIC "-//W3C//DTD SVG 20010904//EN"
 "http://www.w3.org/TR/2001/REC-SVG-20010904/DTD/svg10.dtd">
<svg version="1.0" xmlns="http://www.w3.org/2000/svg"
 width="512.000000pt" height="512.000000pt" viewBox="0 0 512.000000 512.000000"
 preserveAspectRatio="xMidYMid meet">

<g transform="translate(0.000000,512.000000) scale(0.100000,-0.100000)"
fill="#000000" stroke="none">
<path d="M1082 4383 c-11 -10 -66 -102 -122 -205 -55 -102 -107 -191 -114
-197 -7 -6 -95 -56 -197 -112 -101 -55 -190 -107 -198 -114 -20 -19 -18 -72 3
-93 9 -9 102 -64 207 -122 l192 -105 104 -190 c57 -104 111 -198 120 -207 22
-25 72 -23 99 3 l23 22 36 -79 c157 -342 168 -375 168 -554 1 -100 -4 -150
-26 -253 -89 -414 -34 -774 163 -1068 95 -142 362 -367 456 -385 20 -4 53 -1
74 5 42 12 96 67 106 107 4 15 -1 90 -11 168 -33 258 -21 531 31 716 42 147
132 278 228 328 44 23 63 27 136 27 73 0 92 -4 135 -27 129 -68 218 -229 260
-473 24 -136 24 -387 0 -571 -10 -78 -15 -153 -11 -168 10 -40 64 -95 106
-107 58 -17 101 -4 200 62 281 188 453 450 516 784 12 62 17 139 16 245 -1
152 -6 194 -57 460 -20 104 -15 241 14 352 11 43 78 203 150 361 71 155 139
315 149 354 43 153 37 311 -17 463 -37 106 -83 180 -165 267 -81 87 -174 151
-277 192 -109 43 -180 54 -321 49 -109 -5 -137 -10 -248 -46 -201 -65 -263
-75 -450 -75 -187 0 -249 10 -450 75 -111 36 -139 41 -248 46 -75 3 -147 0
-185 -8 -91 -17 -202 -64 -285 -121 -40 -27 -74 -49 -77 -49 -2 0 -31 51 -65
113 -65 119 -89 147 -125 147 -13 0 -32 -8 -43 -17z m989 -252 c211 -67 269
-76 489 -76 220 0 277 9 488 76 157 50 245 58 362 35 300 -61 510 -315 510
-615 0 -121 -23 -188 -160 -487 -163 -356 -181 -412 -187 -604 -5 -134 -3
-158 26 -305 74 -369 40 -663 -105 -908 -76 -128 -294 -337 -390 -374 -16 -6
-17 -1 -10 58 4 35 11 102 16 149 23 205 6 478 -40 655 -33 127 -110 275 -183
349 -108 109 -250 158 -394 136 -308 -48 -492 -389 -493 -915 0 -109 19 -346
33 -418 10 -48 -120 39 -249 167 -116 116 -187 223 -234 354 -84 232 -91 446
-25 776 39 197 32 389 -21 551 -9 27 -61 146 -115 264 -55 118 -99 221 -99
229 0 8 25 58 55 112 l55 98 187 101 c104 56 197 111 207 121 26 25 25 78 0
99 -11 9 -107 63 -212 121 -106 57 -192 110 -192 117 0 16 115 97 183 129 148
67 299 69 498 5z m-866 -106 c43 -77 81 -144 86 -150 4 -5 71 -44 148 -85 77
-41 141 -78 141 -81 0 -3 -65 -41 -145 -85 l-145 -79 -82 -149 c-59 -108 -84
-145 -91 -135 -4 8 -42 75 -82 150 l-74 135 -145 79 c-80 43 -143 82 -140 86
2 4 53 33 112 65 180 96 169 86 257 247 44 80 80 145 81 144 1 -1 37 -65 79
-142z"/>
</g>
</svg>
